<svg width="35" height="20" fill="none" xmlns="http://www.w3.org/2000/svg"><path fill-rule="evenodd" clip-rule="evenodd" d="M10 4.167c-2.064 0-3.83.147-5.172.315a2.348 2.348 0 00-2.06 2.03A25.533 25.533 0 002.501 10c0 1.205.118 2.43.267 3.487a2.348 2.348 0 002.06 2.031c1.341.168 3.108.315 5.173.315 2.064 0 3.831-.147 5.172-.315a2.348 2.348 0 002.06-2.03c.149-1.058.268-2.283.268-3.488s-.119-2.43-.268-3.487a2.348 2.348 0 00-2.06-2.031A41.952 41.952 0 0010 4.167zM4.623 2.828a4.014 4.014 0 00-3.504 3.453A27.189 27.189 0 00.834 10c0 1.307.128 2.614.284 3.72a4.014 4.014 0 003.504 3.452c1.4.175 3.236.328 5.379.328 2.143 0 3.98-.153 5.379-.328a4.014 4.014 0 003.504-3.453c.155-1.105.283-2.412.283-3.719s-.128-2.614-.284-3.72a4.014 4.014 0 00-3.503-3.452A43.618 43.618 0 0010 2.5c-2.142 0-3.979.153-5.378.328z" fill="#777E91"/><path d="M8.775 6.63l4.261 2.663a.833.833 0 010 1.414l-4.26 2.663a.833.833 0 01-1.276-.707V7.337a.833.833 0 011.275-.707z" fill="#777E91"/><path d="M34.204 6.524L31.012 14h-1.704l3.216-7.284H28.42v-1.44h5.784v1.248z" fill="#353945"/></svg>